<?xml version="1.0" encoding="UTF-8"?>
<svg version="1.1" xmlns="http://www.w3.org/2000/svg" width="128" height="60">
<path d="M0 0 C21.15806045 9.00077018 32.51510272 24.90134055 41.1875 45.375 C41.41824219 44.73433594 41.64898437 44.09367187 41.88671875 43.43359375 C44.02757124 37.75568064 46.24813104 33.02143518 50.1875 28.375 C51.1775 28.375 52.1675 28.375 53.1875 28.375 C52.57100496 31.49210974 51.52481226 33.6272804 49.75 36.25 C45.21978691 43.37823155 44.69795431 50.07340103 44.1875 58.375 C40.84222961 56.96416858 39.15138618 55.34796038 36.9375 52.5 C32.56123851 47.31436542 27.73970567 44.87140174 21.1875 43.375 C21.1875 42.385 21.1875 41.395 21.1875 40.375 C27.33972436 40.80673504 31.00667949 42.02905342 36.1875 45.375 C30.42944048 29.45565897 20.66668434 14.91171561 5.31640625 6.87109375 C-1.34360251 3.76662752 -6.426504 2.21888978 -13.8125 2.125 C-15.6378125 2.08632812 -15.6378125 2.08632812 -17.5 2.046875 C-20.98710976 2.39229625 -22.31303871 3.00051177 -24.8125 5.375 C-24.255625 5.69210938 -23.69875 6.00921875 -23.125 6.3359375 C-14.85051045 11.39567604 -7.45171224 18.80785562 -4.8125 28.375 C-4.19717913 34.87103032 -3.86003405 40.86977957 -7.8125 46.375 C-9.67609845 48.52530591 -10.9983826 49.23019651 -13.7890625 49.7265625 C-19.98993074 50.13143019 -24.16300927 48.43718663 -28.8125 44.375 C-35.95899915 36.65804859 -37.25073493 29.47452193 -37.1484375 19.1015625 C-36.71090039 14.2479532 -35.32617821 10.51583598 -32.8125 6.375 C-42.24655332 3.02066993 -51.57699048 3.56737765 -60.8125 7.375 C-65.87594837 10.22894363 -68.96243993 12.82481978 -70.8125 18.375 C-71.2974751 24.72479021 -70.61544001 30.29007746 -68.8125 36.375 C-69.8025 36.375 -70.7925 36.375 -71.8125 36.375 C-75.21583478 30.13555291 -75.52773634 24.40979026 -74.8125 17.375 C-72.52078426 10.74108601 -67.82632839 6.47572936 -61.67578125 3.22265625 C-52.90507067 -0.76737351 -42.71686584 -0.7608759 -33.5 1.625 C-29.88237728 2.46872671 -28.2924589 2.44397692 -25.125 0.5 C-17.81874577 -3.84825656 -7.76907651 -2.62647757 0 0 Z M-29.8125 7.375 C-34.6085345 14.71892782 -34.74549373 21.76130031 -33.8125 30.375 C-31.95664549 36.90522603 -27.76231996 41.12382161 -22.4375 45.1875 C-18.9698637 46.75619261 -16.57792653 46.8542361 -12.8125 46.375 C-9.90532927 44.15636971 -8.97268357 42.85555071 -7.8125 39.375 C-6.81603988 31.61684624 -8.4409142 25.82177231 -12.8125 19.375 C-16.84369651 14.57398568 -21.32870895 10.43572058 -26.8125 7.375 C-27.8025 7.375 -28.7925 7.375 -29.8125 7.375 Z " fill="#656565" transform="translate(74.8125,1.625)"/>
</svg>
