<svg version="1.1" id="Layer_1" xmlns="http://www.w3.org/2000/svg" xmlns:xlink="http://www.w3.org/1999/xlink" x="0px" y="0px"
	 width="100%" viewBox="0 0 500 500" enable-background="new 0 0 500 500" xml:space="preserve">
<path fill="#000000" opacity="1.000000" stroke="none" 
	d="
M319.000000,501.000000 
	C212.666687,501.000000 106.833382,501.000000 1.000057,501.000000 
	C1.000038,334.333405 1.000038,167.666794 1.000019,1.000146 
	C167.666565,1.000098 334.333130,1.000098 500.999756,1.000049 
	C500.999847,167.666519 500.999847,334.333038 500.999939,500.999786 
	C440.500000,501.000000 380.000000,501.000000 319.000000,501.000000 
M127.981522,152.991913 
	C127.981522,152.991913 127.990021,153.131104 127.549057,153.225769 
	C127.260704,153.396881 127.123512,153.649963 127.004662,153.978226 
	C127.004662,153.978226 126.993752,154.110764 126.337379,154.314194 
	C124.263306,156.543274 122.189232,158.772369 120.011803,161.007782 
	C120.011803,161.007782 120.008644,161.111298 119.375946,161.328018 
	C115.053185,168.332123 110.093674,175.029480 106.540810,182.404495 
	C99.247841,197.543274 99.174629,213.876389 103.527046,229.483505 
	C108.421104,247.032852 118.727165,261.628876 134.415314,271.855774 
	C144.718430,278.572266 155.928299,283.556702 168.142578,283.587250 
	C183.429916,283.625519 198.721832,281.838684 214.357071,280.985901 
	C214.617691,281.034698 214.857056,280.983673 215.759094,280.917938 
	C215.900330,280.736755 216.041565,280.555542 216.241150,280.295319 
	C216.241150,280.295319 216.429443,280.266846 216.917770,280.936890 
	C218.313705,280.923401 219.709625,280.909912 221.969452,281.071564 
	C224.606796,281.012909 227.244141,280.954224 230.554947,280.989349 
	C231.435654,280.944275 232.316360,280.899231 234.005798,281.062103 
	C237.784302,281.071259 241.580170,281.306213 245.335800,281.017670 
	C248.306442,280.789459 251.227707,279.918427 254.000458,280.252472 
	C255.610352,279.945496 257.220245,279.638519 259.324005,279.897186 
	C260.946198,279.708130 262.568359,279.519104 264.047607,280.313873 
	C264.307709,280.520355 264.567139,280.906586 264.828003,280.907562 
	C277.945007,280.957092 291.062256,280.993835 304.178864,280.923340 
	C304.725067,280.920441 305.265717,279.882904 306.394226,280.030823 
	C315.797852,280.190277 325.201202,280.393524 334.605469,280.454468 
	C335.797974,280.462189 336.995331,279.724731 338.044617,280.307861 
	C342.400848,280.504242 346.757111,280.700592 351.986694,281.071564 
	C354.953461,281.013458 357.920197,280.955353 361.846130,280.991974 
	C378.559021,280.941406 395.271942,280.890869 412.741364,280.996277 
	C415.057617,280.848267 418.265228,281.543701 415.608795,277.042847 
	C415.110016,277.388489 414.611237,277.734100 413.592804,278.116699 
	C413.419189,278.121094 413.245605,278.125458 412.717346,277.343719 
	C408.813538,277.571747 404.909821,277.997467 401.005951,277.998383 
	C336.056000,278.013550 271.106018,277.975464 206.230667,277.291656 
	C207.182297,276.899200 208.133911,276.506775 210.001312,275.974762 
	C227.630188,275.989777 245.259079,276.029449 262.887939,276.015137 
	C316.258575,275.971802 369.629242,275.907532 423.531769,275.948303 
	C423.734467,275.661743 423.937134,275.375153 424.853973,274.677399 
	C425.684662,270.330841 422.272430,272.142212 420.732880,272.140076 
	C354.910736,272.048035 289.088409,272.066376 223.266174,272.006805 
	C221.491913,272.005219 219.718292,271.295868 218.592529,270.676270 
	C220.585022,270.396851 222.577515,270.117462 225.560226,269.971313 
	C231.019608,269.980865 236.481583,270.097656 241.937546,269.966003 
	C246.294647,269.860901 250.644470,269.453308 255.924164,269.027832 
	C284.663696,269.023956 313.403259,269.042145 342.142761,269.007202 
	C357.087585,268.989014 372.032257,268.877106 387.913239,268.919189 
	C402.740265,268.923828 417.567413,268.958344 432.394012,268.880707 
	C433.686432,268.873932 434.975006,268.129028 436.265350,267.726990 
	C436.139862,267.285767 436.014404,266.844574 435.888916,266.403381 
	C435.418365,266.295837 434.947784,266.093903 434.477264,266.094147 
	C371.649323,266.123322 308.821381,266.176544 245.993439,266.197632 
	C239.003189,266.199982 232.012878,266.023407 224.987045,265.939209 
	C224.987045,265.939209 224.972137,265.972015 225.048569,265.410889 
	C225.371185,264.956390 225.693787,264.501862 226.767715,264.014282 
	C227.517776,263.969543 228.267853,263.924805 229.806915,264.044342 
	C230.874283,263.983795 231.941650,263.923279 233.922684,263.987640 
	C237.621536,263.940704 241.320404,263.893799 245.939651,263.988464 
	C276.504700,263.991943 307.069733,264.011749 337.634766,263.992798 
	C355.736145,263.981598 373.837433,263.909271 392.876404,263.989868 
	C404.572510,263.907440 416.268616,263.825012 428.909241,263.797272 
	C433.799622,263.799347 438.690582,263.759399 443.580139,263.823700 
	C445.600311,263.850281 447.253876,263.677795 446.978180,260.205811 
	C446.935181,259.135803 446.892181,258.065796 447.017883,256.073059 
	C446.962341,233.720795 446.906799,211.368515 446.984680,188.271271 
	C446.935333,187.518982 446.885956,186.766708 446.951202,185.287354 
	C431.177338,185.201675 415.403473,185.042206 399.629608,185.044052 
	C350.756592,185.049774 301.883545,185.116852 252.141037,185.013016 
	C249.637558,184.684738 247.134079,184.356461 244.526413,183.520721 
	C244.340942,183.089081 244.155472,182.657455 243.925934,181.551361 
	C243.825699,181.349579 243.725449,181.147797 243.708054,180.429169 
	C243.462982,180.009705 243.217911,179.590256 242.880524,178.536774 
	C242.792801,178.342056 242.705063,178.147324 242.746536,177.527878 
	C242.590271,177.236420 242.346741,177.091248 242.032715,176.975128 
	C242.032715,176.975128 241.917938,176.945816 241.913620,176.400803 
	C241.613998,176.002533 241.314392,175.604263 241.036713,174.993820 
	C241.036713,174.993820 240.825836,174.961838 240.778625,174.495316 
	C240.590912,174.221466 240.333862,174.053909 239.955841,173.502670 
	C239.955841,173.502670 239.777237,173.043488 239.838013,172.344193 
	C233.980164,165.561966 228.091293,158.806152 222.284576,151.980423 
	C220.675262,150.088684 219.310013,147.989288 217.979507,145.059937 
	C217.924896,136.708740 217.870285,128.357544 217.958603,119.086632 
	C217.958603,115.315613 217.958603,111.544594 217.958603,107.023041 
	C213.791748,107.023041 210.040588,107.021141 206.289444,107.023438 
	C198.719101,107.028084 197.389847,109.109894 200.000214,117.831879 
	C200.054718,118.883659 200.109238,119.935432 200.000809,121.876190 
	C200.067093,124.582687 200.133362,127.289185 200.017334,130.634735 
	C199.977386,131.075104 199.937439,131.515472 199.204544,132.301804 
	C199.430359,134.217224 199.656174,136.132629 199.989517,138.497757 
	C199.989517,138.497757 199.989166,138.960144 199.178818,139.093063 
	C192.781464,138.116425 186.384125,137.139801 179.333511,136.020844 
	C178.892807,136.067627 178.452103,136.114395 177.094040,135.997299 
	C172.004196,136.339111 166.869873,136.369492 161.834000,137.089035 
	C152.031036,138.489716 142.902786,141.790878 134.437073,148.092819 
	C134.275345,148.196503 134.113632,148.300201 133.593719,148.332047 
	C133.320175,148.447906 133.226776,148.647842 133.034286,148.928146 
	C133.034286,148.928146 132.962357,149.197983 132.307709,149.136063 
	C131.252792,150.092819 130.197891,151.049576 128.998672,151.988190 
	C128.998672,151.988190 128.977371,152.132065 128.509247,152.178284 
	C128.195312,152.354935 128.065643,152.621338 127.981522,152.991913 
z"/>
<path fill="#FEFEFE" opacity="1.000000" stroke="none" 
	d="
M199.897491,131.955841 
	C199.937439,131.515472 199.977386,131.075104 200.359558,130.050766 
	C201.098633,126.603706 204.109695,123.574753 200.163742,120.987213 
	C200.109238,119.935432 200.054718,118.883659 200.239532,117.199364 
	C200.664185,115.940140 200.788528,115.287033 201.046173,114.691612 
	C201.853653,112.825584 202.385864,109.688507 203.612808,109.379608 
	C206.834824,108.568413 210.400696,108.715309 213.755096,109.111320 
	C214.643417,109.216194 215.471359,111.532104 215.957214,112.958733 
	C216.738495,115.252838 217.212082,117.651733 217.815674,120.006355 
	C217.870285,128.357544 217.924896,136.708740 217.577240,145.595215 
	C214.774139,149.072708 217.397293,150.357925 219.064026,152.032440 
	C223.179230,156.166824 227.232559,160.362701 231.323929,164.520905 
	C234.130234,167.373047 236.958679,170.203400 239.777237,173.043488 
	C239.777237,173.043488 239.955841,173.502670 240.037628,173.968384 
	C240.268539,174.725616 240.504013,174.901520 240.825836,174.961838 
	C240.825836,174.961838 241.036713,174.993820 241.009125,175.368805 
	C241.293655,176.144470 241.605804,176.545135 241.917938,176.945816 
	C241.917938,176.945816 242.032715,176.975128 242.038071,177.226395 
	C242.141083,177.749039 242.332382,177.907349 242.617340,177.952606 
	C242.705063,178.147324 242.792801,178.342056 242.906281,179.108627 
	C243.163101,180.102325 243.394165,180.524185 243.625214,180.946030 
	C243.725449,181.147797 243.825699,181.349579 243.906738,182.164963 
	C243.868973,183.151566 243.850418,183.524567 243.494415,184.003479 
	C241.098145,189.524414 245.799881,185.938797 246.958557,187.399994 
	C245.606461,191.861343 245.035934,195.802307 248.887573,199.328674 
	C248.996552,200.081757 249.016830,200.518829 248.751068,201.228088 
	C247.054337,207.672363 250.544205,214.598480 246.235672,219.334518 
	C246.606873,221.991425 247.624115,224.188171 246.987564,225.678528 
	C245.148941,229.983231 241.235428,233.838348 240.727386,238.173615 
	C239.941940,244.875870 236.514709,248.964600 231.467133,252.852158 
	C232.363022,253.608749 233.210251,254.324265 233.981415,255.323761 
	C233.306808,256.086823 232.708252,256.565887 231.780304,256.906067 
	C230.074051,256.767151 228.697189,256.767151 227.320312,256.767151 
	C227.307831,257.285065 227.295334,257.802979 227.282837,258.320862 
	C228.554169,258.865417 229.825516,259.410004 231.072998,259.920776 
	C231.049164,259.886993 231.131195,259.906830 231.102554,260.239319 
	C230.411453,261.415009 229.749008,262.258209 228.793213,262.961212 
	C227.672028,263.229797 226.844208,263.638580 226.016403,264.047363 
	C225.693787,264.501862 225.371185,264.956390 224.618454,265.751312 
	C222.940628,266.396088 221.670975,267.023590 220.449585,266.940582 
	C217.489594,266.739380 216.779480,268.280487 216.848572,271.074707 
	C216.687851,271.575165 216.617111,271.773224 216.190735,271.981018 
	C214.882523,272.966583 213.929947,273.942444 212.584045,274.955627 
	C211.151657,275.074005 210.112549,275.155090 209.056610,274.837585 
	C210.924393,270.949982 211.977463,265.874359 214.890503,264.347595 
	C219.151047,262.114624 221.303497,258.111755 224.987976,255.783615 
	C227.729782,254.051147 228.280701,251.979248 227.991699,249.110138 
	C227.990845,249.022949 228.161514,248.992767 228.507294,248.971176 
	C230.828461,247.038895 233.735580,245.480835 234.615601,243.155594 
	C238.154617,233.804535 243.290115,224.688797 241.008026,213.769073 
	C241.083237,213.341629 241.133972,213.174728 241.329666,212.909744 
	C241.374344,212.539856 241.274063,212.268051 241.096130,211.782318 
	C241.018478,211.568420 240.950836,211.118332 240.968201,210.808685 
	C240.973328,210.292664 240.961090,210.086273 240.960068,209.667755 
	C240.971298,209.455597 240.869019,209.043213 241.169434,208.797104 
	C241.311066,204.210403 241.334061,199.854004 240.957962,195.532333 
	C239.996597,184.485870 233.382004,175.576691 229.062943,165.848785 
	C227.774673,162.947205 223.437912,161.293625 220.282181,159.434357 
	C219.778244,159.137466 217.203552,160.723877 217.158981,161.526917 
	C216.616669,171.298538 216.159012,181.085495 216.113098,190.870529 
	C216.078110,198.322128 216.773087,205.774124 216.944382,213.230499 
	C217.167068,222.923889 215.758774,232.464157 209.329681,240.005859 
	C206.087723,243.808853 201.009064,246.042358 196.776886,249.008347 
	C195.986404,249.562332 195.271942,250.224777 194.326691,250.900909 
	C194.130966,250.964661 193.740311,250.834839 193.394989,250.625046 
	C192.352676,250.650146 191.655655,250.885025 190.597198,251.060272 
	C189.503891,251.018738 188.772064,251.036835 187.824799,250.789124 
	C186.393494,250.695374 185.177643,250.867432 183.597534,251.018890 
	C182.503754,251.005615 181.774216,251.012924 180.819214,251.062225 
	C180.303192,251.245224 180.100510,251.466629 179.657867,251.800751 
	C178.570206,251.460129 177.810379,251.087219 177.001419,250.391052 
	C176.689178,248.561081 176.426041,247.054352 176.402786,246.921173 
	C173.590012,246.220779 171.413712,245.739380 169.273972,245.129623 
	C166.991028,244.479050 164.742630,243.707230 162.293167,242.987900 
	C162.107178,242.987457 161.909393,242.672409 161.853394,242.496857 
	C161.626343,242.118073 161.408020,242.020477 161.068390,242.030792 
	C160.994385,242.033066 160.981079,241.885590 160.998413,241.443512 
	C160.999298,238.327972 160.982834,235.654480 160.981232,232.989578 
	C160.996094,232.998154 160.978333,232.969193 161.207016,232.890808 
	C161.724747,232.630753 161.906662,232.373367 161.987839,232.008789 
	C161.994202,231.977325 162.057816,231.985718 162.277893,231.915741 
	C162.781754,231.672653 162.942612,231.420959 162.975342,231.042938 
	C162.970123,230.995163 163.064392,230.976471 163.278381,230.895645 
	C163.759491,230.632843 163.922714,230.382980 163.992096,230.021210 
	C164.002167,229.977219 164.091232,229.992035 164.312042,229.923203 
	C164.814789,229.674774 164.968338,229.418289 164.986237,229.047745 
	C164.978943,229.010559 165.052521,228.992325 165.415878,228.997421 
	C167.314575,229.264236 168.936371,229.297958 170.365479,229.839859 
	C172.647049,230.704971 174.800568,231.907837 177.008270,232.979324 
	C177.008301,232.990738 177.031113,232.990204 177.047913,233.329315 
	C179.464630,236.562759 183.188309,237.553513 186.362610,236.028931 
	C187.480728,236.005539 188.226288,235.996414 189.140884,236.293777 
	C193.746658,239.677078 196.605621,236.136581 197.760590,233.278748 
	C199.398178,229.226746 199.339966,224.489395 200.022675,219.779709 
	C200.025894,219.337845 200.012878,219.161179 200.163727,218.639221 
	C200.178970,216.182205 200.030319,214.070511 199.940536,211.636383 
	C200.061005,210.884003 200.122589,210.454056 200.501907,209.797211 
	C201.210037,208.019638 201.928818,206.471176 201.939285,204.917953 
	C202.029007,191.615601 202.034531,178.312088 201.952621,165.009628 
	C201.936493,162.389542 200.664993,159.556686 201.324936,157.200806 
	C202.538681,152.867920 201.443405,149.267990 199.211456,145.904053 
	C197.384445,143.150482 197.710815,141.049606 199.989166,138.960144 
	C199.989166,138.960144 199.989517,138.497757 200.230225,138.033081 
	C200.279785,135.697556 200.088638,133.826691 199.897491,131.955841 
M239.414093,183.483093 
	C239.414093,183.483093 239.522659,183.418808 239.414093,183.483093 
z"/>
<path fill="#EBF1FB" opacity="1.000000" stroke="none" 
	d="
M227.992569,249.197327 
	C228.280701,251.979248 227.729782,254.051147 224.987976,255.783615 
	C221.303497,258.111755 219.151047,262.114624 214.890503,264.347595 
	C211.977463,265.874359 210.924393,270.949982 209.046326,275.056335 
	C209.052902,275.673676 209.085526,276.114319 209.085526,276.114319 
	C208.133911,276.506775 207.182297,276.899200 206.431274,277.940918 
	C209.815536,279.184906 212.999176,279.779633 216.182816,280.374329 
	C216.041565,280.555542 215.900330,280.736755 215.264313,280.720123 
	C214.441620,280.447571 214.189026,280.553345 214.011765,280.839661 
	C198.721832,281.838684 183.429916,283.625519 168.142578,283.587250 
	C155.928299,283.556702 144.718430,278.572266 134.415314,271.855774 
	C118.727165,261.628876 108.421104,247.032852 103.527046,229.483505 
	C99.174629,213.876389 99.247841,197.543274 106.540810,182.404495 
	C110.093674,175.029480 115.053185,168.332123 119.703735,161.600189 
	C119.328133,163.458466 118.401894,164.990112 117.996445,166.649033 
	C117.706261,167.836334 118.113892,169.194168 118.210175,170.475922 
	C119.256119,170.076584 120.631134,169.962662 121.277863,169.217056 
	C122.532692,167.770355 123.037491,165.542038 124.464096,164.402634 
	C127.448517,162.019073 130.829453,160.131973 133.963898,158.368774 
	C121.345520,169.662994 113.123535,182.921326 110.651199,199.735733 
	C107.744415,219.504837 112.508766,237.020050 125.442383,251.984467 
	C142.187836,271.359253 163.650146,278.568604 188.733932,273.843994 
	C199.619308,271.793762 209.569931,267.051056 217.747620,259.231964 
	C221.202377,255.928696 224.579926,252.544647 227.992569,249.197327 
z"/>
<path fill="#F7FCFE" opacity="1.000000" stroke="none" 
	d="
M247.009171,187.002838 
	C245.799881,185.938797 241.098145,189.524414 243.691559,184.057083 
	C244.226151,184.004791 244.630600,184.028183 244.630600,184.028183 
	C247.134079,184.356461 249.637558,184.684738 252.794128,185.408295 
	C254.830002,186.193573 256.212006,186.921661 257.595673,186.924744 
	C308.035034,187.036819 358.474731,187.157135 408.914032,187.082352 
	C421.555420,187.063599 434.195770,186.388092 446.836609,186.014420 
	C446.885956,186.766708 446.935333,187.518982 446.664368,188.967621 
	C446.255005,211.515030 446.159851,233.366058 446.109589,255.217209 
	C446.108246,255.809494 446.591766,256.402893 446.849213,256.995789 
	C446.892181,258.065796 446.935181,259.135803 446.615509,260.784851 
	C444.615051,261.796295 443.000092,262.440277 441.335022,262.620300 
	C436.889771,263.100922 432.422974,263.382111 427.964722,263.742584 
	C416.268616,263.825012 404.572510,263.907440 392.106628,263.649292 
	C391.014191,263.234131 390.691620,263.094391 390.368927,263.094116 
	C343.159363,263.057617 295.949799,263.024780 248.740234,263.039764 
	C247.499832,263.040131 246.259583,263.566040 245.019257,263.846893 
	C241.320404,263.893799 237.621536,263.940704 233.396179,263.599762 
	C232.565643,262.381439 232.261612,261.551025 232.424469,260.813446 
	C300.876434,260.925873 368.861542,260.951721 436.846588,260.920471 
	C438.218658,260.919830 439.590424,260.253082 440.975647,259.934753 
	C440.988983,259.972443 440.913666,259.945679 441.325806,259.883301 
	C442.187500,258.369019 442.996765,256.924164 443.025391,255.464020 
	C443.161652,248.513397 443.173218,241.556992 443.046326,234.605988 
	C442.987305,231.373718 442.512665,228.149017 442.131622,224.562958 
	C442.076477,223.468552 442.116150,222.732071 442.420776,221.674332 
	C442.808960,211.599472 442.955872,201.845993 443.004089,192.092010 
	C443.007446,191.415741 442.276398,190.735825 441.426086,190.028717 
	C427.641754,189.943970 414.318176,189.888138 400.760376,189.471893 
	C352.217224,189.072815 303.908295,189.029800 255.599365,189.030365 
	C254.732025,189.030380 253.864670,189.552261 252.602570,189.907013 
	C251.139954,189.935425 250.072113,189.887451 248.995209,189.499069 
	C248.327148,188.440063 247.668152,187.721451 247.009171,187.002838 
z"/>
<path fill="#EBF1FB" opacity="1.000000" stroke="none" 
	d="
M212.977356,274.918304 
	C213.929947,273.942444 214.882523,272.966583 216.532120,272.284973 
	C219.369888,272.737823 221.510498,273.032196 223.651398,273.034363 
	C251.274063,273.062347 278.896790,273.046082 306.519470,273.046265 
	C343.959778,273.046509 381.400146,273.023651 418.840088,273.140564 
	C420.608673,273.146088 422.373352,274.410461 424.139832,275.088593 
	C423.937134,275.375153 423.734467,275.661743 422.949371,275.628479 
	C411.057922,275.222839 399.748901,275.074585 388.439789,275.061676 
	C329.952301,274.994843 271.464844,274.962616 212.977356,274.918304 
z"/>
<path fill="#FEFEFE" opacity="1.000000" stroke="none" 
	d="
M134.047531,158.040955 
	C130.829453,160.131973 127.448517,162.019073 124.464096,164.402634 
	C123.037491,165.542038 122.532692,167.770355 121.277863,169.217056 
	C120.631134,169.962662 119.256119,170.076584 118.210175,170.475922 
	C118.113892,169.194168 117.706261,167.836334 117.996445,166.649033 
	C118.401894,164.990112 119.328133,163.458466 120.020088,161.491821 
	C120.008644,161.111298 120.011803,161.007782 120.438629,161.011475 
	C124.597298,160.212921 127.851357,158.986588 126.993752,154.110764 
	C126.993752,154.110764 127.004662,153.978226 127.279541,153.918564 
	C127.819847,153.688309 127.965050,153.445709 127.990021,153.131104 
	C127.990021,153.131104 127.981522,152.991913 128.254852,152.916580 
	C128.787430,152.674240 128.937149,152.437851 128.977371,152.132065 
	C128.977371,152.132065 128.998672,151.988190 129.415298,152.014832 
	C130.875412,151.093643 131.918884,150.145813 132.962357,149.197983 
	C132.962357,149.197983 133.034286,148.928146 133.327530,148.918579 
	C133.822006,148.800323 133.932373,148.631943 133.951904,148.403900 
	C134.113632,148.300201 134.275345,148.196503 135.114273,148.058197 
	C137.260864,148.185837 138.730270,148.348083 140.199661,148.510345 
	C141.626526,146.472183 143.362503,144.943695 145.386368,144.142029 
	C154.501892,140.531326 163.445145,136.013885 173.861908,138.616791 
	C174.971283,138.894012 176.615372,137.031219 178.011398,136.161194 
	C178.452103,136.114395 178.892807,136.067627 179.763138,136.460419 
	C181.371750,137.265015 182.527939,137.810547 183.733780,137.962814 
	C188.236679,138.531357 192.715698,139.061996 196.166748,144.003693 
	C194.603424,144.131882 193.528030,144.320892 192.458939,144.290176 
	C187.960571,144.160980 183.464096,143.966156 178.727936,143.876373 
	C178.326065,143.915436 178.163162,143.873474 177.704895,143.579056 
	C172.888428,143.261612 168.010452,139.712509 163.695419,144.825073 
	C162.936722,144.971603 162.489502,144.992554 161.765961,144.733246 
	C160.688187,144.304993 159.864594,143.954880 159.088562,144.039719 
	C149.548630,145.082703 142.433792,151.314957 134.473022,155.721466 
	C134.033295,155.964890 134.169739,157.249252 134.022217,158.028381 
	C134.006439,158.007660 134.047531,158.040955 134.047531,158.040955 
z"/>
<path fill="#EBF1FB" opacity="1.000000" stroke="none" 
	d="
M216.938522,270.772339 
	C216.779480,268.280487 217.489594,266.739380 220.449585,266.940582 
	C221.670975,267.023590 222.940628,266.396088 224.580231,266.031860 
	C224.972137,265.972015 224.987045,265.939209 225.231598,266.299713 
	C227.447037,266.809509 229.417877,267.088593 231.388809,267.089294 
	C296.784668,267.112457 362.180511,267.108978 427.576355,267.109436 
	C429.376648,267.109436 431.176941,267.109436 432.977234,267.109436 
	C419.726959,267.966858 406.475464,267.930542 393.224579,268.004486 
	C391.140625,268.016113 389.059479,268.527313 386.977020,268.807556 
	C372.032257,268.877106 357.087585,268.989014 342.142761,269.007202 
	C313.403259,269.042145 284.663696,269.023956 254.997406,269.032471 
	C248.941711,269.030945 243.809937,268.916351 238.684662,269.050537 
	C233.976135,269.173767 229.274597,269.564911 224.569992,269.838074 
	C222.577515,270.117462 220.585022,270.396851 218.019409,270.741394 
	C217.277039,270.795135 217.107788,270.783722 216.938522,270.772339 
z"/>
<path fill="#DBE0FE" opacity="1.000000" stroke="none" 
	d="
M446.893921,185.650879 
	C434.195770,186.388092 421.555420,187.063599 408.914032,187.082352 
	C358.474731,187.157135 308.035034,187.036819 257.595673,186.924744 
	C256.212006,186.921661 254.830002,186.193573 253.228882,185.481827 
	C301.883545,185.116852 350.756592,185.049774 399.629608,185.044052 
	C415.403473,185.042206 431.177338,185.201675 446.893921,185.650879 
z"/>
<path fill="#A0B1F6" opacity="1.000000" stroke="none" 
	d="
M216.211975,280.334839 
	C212.999176,279.779633 209.815536,279.184906 206.393982,278.269745 
	C271.106018,277.975464 336.056000,278.013550 401.005951,277.998383 
	C404.909821,277.997467 408.813538,277.571747 412.575348,278.010193 
	C403.626556,278.795715 394.819733,278.914795 385.562927,279.007111 
	C377.880249,279.219818 370.645874,279.422241 363.417053,279.747803 
	C362.558167,279.786469 361.729584,280.497742 360.886963,280.897247 
	C357.920197,280.955353 354.953461,281.013458 351.340820,280.636475 
	C346.526764,279.911743 342.358612,279.622131 338.190430,279.332520 
	C336.995331,279.724731 335.797974,280.462189 334.605469,280.454468 
	C325.201202,280.393524 315.797852,280.190277 305.575745,279.555145 
	C291.235046,279.162994 277.712799,279.246521 264.190552,279.330078 
	C262.568359,279.519104 260.946198,279.708130 258.496490,279.488556 
	C256.502960,279.164246 255.336929,279.248535 254.170898,279.332855 
	C251.227707,279.918427 248.306442,280.789459 245.335800,281.017670 
	C241.580170,281.306213 237.784302,281.071259 233.612213,280.565796 
	C232.106247,280.344818 230.993866,280.620178 229.881485,280.895508 
	C227.244141,280.954224 224.606796,281.012909 221.274170,280.639404 
	C219.195724,280.227112 217.812592,280.246979 216.429443,280.266846 
	C216.429443,280.266846 216.241150,280.295319 216.211975,280.334839 
z"/>
<path fill="#C3D0F3" opacity="1.000000" stroke="none" 
	d="
M387.445129,268.863373 
	C389.059479,268.527313 391.140625,268.016113 393.224579,268.004486 
	C406.475464,267.930542 419.726959,267.966858 432.977234,267.109436 
	C431.176941,267.109436 429.376648,267.109436 427.576355,267.109436 
	C362.180511,267.108978 296.784668,267.112457 231.388809,267.089294 
	C229.417877,267.088593 227.447037,266.809509 225.249374,266.295013 
	C232.012878,266.023407 239.003189,266.199982 245.993439,266.197632 
	C308.821381,266.176544 371.649323,266.123322 434.477264,266.094147 
	C434.947784,266.093903 435.418365,266.295837 435.888916,266.403381 
	C436.014404,266.844574 436.139862,267.285767 436.265350,267.726990 
	C434.975006,268.129028 433.686432,268.873932 432.394012,268.880707 
	C417.567413,268.958344 402.740265,268.923828 387.445129,268.863373 
z"/>
<path fill="#EBF1FB" opacity="1.000000" stroke="none" 
	d="
M178.966919,143.795334 
	C183.464096,143.966156 187.960571,144.160980 192.458939,144.290176 
	C193.528030,144.320892 194.603424,144.131882 196.166748,144.003693 
	C192.715698,139.061996 188.236679,138.531357 183.733780,137.962814 
	C182.527939,137.810547 181.371750,137.265015 180.089767,136.531586 
	C186.384125,137.139801 192.781464,138.116425 199.583984,139.026611 
	C197.710815,141.049606 197.384445,143.150482 199.211456,145.904053 
	C201.443405,149.267990 202.538681,152.867920 201.324936,157.200806 
	C200.664993,159.556686 201.936493,162.389542 201.952621,165.009628 
	C202.034531,178.312088 202.029007,191.615601 201.939285,204.917953 
	C201.928818,206.471176 201.210037,208.019638 200.432861,209.330780 
	C200.048981,192.144547 200.108490,175.197617 200.033447,158.251251 
	C199.988678,148.143478 199.695816,147.888168 189.818100,145.877670 
	C186.209274,145.143112 182.584442,144.487152 178.966919,143.795334 
z"/>
<path fill="#A6B6F6" opacity="1.000000" stroke="none" 
	d="
M212.584045,274.955627 
	C271.464844,274.962616 329.952301,274.994843 388.439789,275.061676 
	C399.748901,275.074585 411.057922,275.222839 422.683411,275.580017 
	C369.629242,275.907532 316.258575,275.971802 262.887939,276.015137 
	C245.259079,276.029449 227.630188,275.989777 209.543427,276.044556 
	C209.085526,276.114319 209.052902,275.673676 209.063171,275.454926 
	C210.112549,275.155090 211.151657,275.074005 212.584045,274.955627 
z"/>
<path fill="#A6B6F6" opacity="1.000000" stroke="none" 
	d="
M216.848572,271.074707 
	C217.107788,270.783722 217.277039,270.795135 217.695343,270.861542 
	C219.718292,271.295868 221.491913,272.005219 223.266174,272.006805 
	C289.088409,272.066376 354.910736,272.048035 420.732880,272.140076 
	C422.272430,272.142212 425.684662,270.330841 424.496887,274.882996 
	C422.373352,274.410461 420.608673,273.146088 418.840088,273.140564 
	C381.400146,273.023651 343.959778,273.046509 306.519470,273.046265 
	C278.896790,273.046082 251.274063,273.062347 223.651398,273.034363 
	C221.510498,273.032196 219.369888,272.737823 216.887756,272.275269 
	C216.617111,271.773224 216.687851,271.575165 216.848572,271.074707 
z"/>
<path fill="#7483E5" opacity="1.000000" stroke="none" 
	d="
M245.479462,263.917664 
	C246.259583,263.566040 247.499832,263.040131 248.740234,263.039764 
	C295.949799,263.024780 343.159363,263.057617 390.368927,263.094116 
	C390.691620,263.094391 391.014191,263.234131 391.637817,263.586578 
	C373.837433,263.909271 355.736145,263.981598 337.634766,263.992798 
	C307.069733,264.011749 276.504700,263.991943 245.479462,263.917664 
z"/>
<path fill="#EBF1FB" opacity="1.000000" stroke="none" 
	d="
M177.552719,136.079254 
	C176.615372,137.031219 174.971283,138.894012 173.861908,138.616791 
	C163.445145,136.013885 154.501892,140.531326 145.386368,144.142029 
	C143.362503,144.943695 141.626526,146.472183 140.199661,148.510345 
	C138.730270,148.348083 137.260864,148.185837 135.398315,148.009644 
	C142.902786,141.790878 152.031036,138.489716 161.834000,137.089035 
	C166.869873,136.369492 172.004196,136.339111 177.552719,136.079254 
z"/>
<path fill="#EBF1FB" opacity="1.000000" stroke="none" 
	d="
M239.807617,172.693848 
	C236.958679,170.203400 234.130234,167.373047 231.323929,164.520905 
	C227.232559,160.362701 223.179230,156.166824 219.064026,152.032440 
	C217.397293,150.357925 214.774139,149.072708 217.503876,146.057831 
	C219.310013,147.989288 220.675262,150.088684 222.284576,151.980423 
	C228.091293,158.806152 233.980164,165.561966 239.807617,172.693848 
z"/>
<path fill="#EBF2FF" opacity="1.000000" stroke="none" 
	d="
M264.119080,279.821960 
	C277.712799,279.246521 291.235046,279.162994 305.283142,279.203430 
	C305.265717,279.882904 304.725067,280.920441 304.178864,280.923340 
	C291.062256,280.993835 277.945007,280.957092 264.828003,280.907562 
	C264.567139,280.906586 264.307709,280.520355 264.119080,279.821960 
z"/>
<path fill="#EBF1FB" opacity="1.000000" stroke="none" 
	d="
M217.887146,119.546494 
	C217.212082,117.651733 216.738495,115.252838 215.957214,112.958733 
	C215.471359,111.532104 214.643417,109.216194 213.755096,109.111320 
	C210.400696,108.715309 206.834824,108.568413 203.612808,109.379608 
	C202.385864,109.688507 201.853653,112.825584 201.046173,114.691612 
	C200.788528,115.287033 200.664185,115.940140 200.182129,116.807495 
	C197.389847,109.109894 198.719101,107.028084 206.289444,107.023438 
	C210.040588,107.021141 213.791748,107.023041 217.958603,107.023041 
	C217.958603,111.544594 217.958603,115.315613 217.887146,119.546494 
z"/>
<path fill="#D6E1F9" opacity="1.000000" stroke="none" 
	d="
M446.933533,256.534424 
	C446.591766,256.402893 446.108246,255.809494 446.109589,255.217209 
	C446.159851,233.366058 446.255005,211.515030 446.597656,189.340118 
	C446.906799,211.368515 446.962341,233.720795 446.933533,256.534424 
z"/>
<path fill="#EBF2FF" opacity="1.000000" stroke="none" 
	d="
M361.366547,280.944611 
	C361.729584,280.497742 362.558167,279.786469 363.417053,279.747803 
	C370.645874,279.422241 377.880249,279.219818 385.860718,279.295929 
	C389.714050,279.740753 392.820648,279.850311 395.925049,280.003723 
	C401.278992,280.268250 406.631653,280.559967 411.984833,280.840332 
	C395.271942,280.890869 378.559021,280.941406 361.366547,280.944611 
z"/>
<path fill="#EBF1FB" opacity="1.000000" stroke="none" 
	d="
M412.363098,280.918304 
	C406.631653,280.559967 401.278992,280.268250 395.925049,280.003723 
	C392.820648,279.850311 389.714050,279.740753 386.310699,279.322693 
	C394.819733,278.914795 403.626556,278.795715 412.752686,278.403198 
	C413.245605,278.125458 413.419189,278.121094 414.152954,278.159180 
	C415.223877,277.898743 415.734711,277.595856 416.245514,277.292938 
	C418.265228,281.543701 415.057617,280.848267 412.363098,280.918304 
z"/>
<path fill="#0000FF" opacity="1.000000" stroke="none" 
	d="
M225.065109,269.904663 
	C229.274597,269.564911 233.976135,269.173767 238.684662,269.050537 
	C243.809937,268.916351 248.941711,269.030945 254.534088,269.108521 
	C250.644470,269.453308 246.294647,269.860901 241.937546,269.966003 
	C236.481583,270.097656 231.019608,269.980865 225.065109,269.904663 
z"/>
<path fill="#EBF1FB" opacity="1.000000" stroke="none" 
	d="
M126.665565,154.212479 
	C127.851357,158.986588 124.597298,160.212921 120.490303,161.008316 
	C122.189232,158.772369 124.263306,156.543274 126.665565,154.212479 
z"/>
<path fill="#D6E1F9" opacity="1.000000" stroke="none" 
	d="
M428.436981,263.769928 
	C432.422974,263.382111 436.889771,263.100922 441.335022,262.620300 
	C443.000092,262.440277 444.615051,261.796295 446.546143,261.181396 
	C447.253876,263.677795 445.600311,263.850281 443.580139,263.823700 
	C438.690582,263.759399 433.799622,263.799347 428.436981,263.769928 
z"/>
<path fill="#EBF2FF" opacity="1.000000" stroke="none" 
	d="
M338.117523,279.820190 
	C342.358612,279.622131 346.526764,279.911743 350.904144,280.549164 
	C346.757111,280.700592 342.400848,280.504242 338.117523,279.820190 
z"/>
<path fill="#EBF1FB" opacity="1.000000" stroke="none" 
	d="
M200.082275,121.431702 
	C204.109695,123.574753 201.098633,126.603706 200.450699,129.731232 
	C200.133362,127.289185 200.067093,124.582687 200.082275,121.431702 
z"/>
<path fill="#EBF1FB" opacity="1.000000" stroke="none" 
	d="
M199.551025,132.128815 
	C200.088638,133.826691 200.279785,135.697556 200.176468,137.808228 
	C199.656174,136.132629 199.430359,134.217224 199.551025,132.128815 
z"/>
<path fill="#C3D0F3" opacity="1.000000" stroke="none" 
	d="
M231.957596,260.720581 
	C232.261612,261.551025 232.565643,262.381439 232.939331,263.537323 
	C231.941650,263.923279 230.874283,263.983795 229.437759,263.768280 
	C229.068604,263.492218 229.086548,263.101410 229.086548,263.101410 
	C229.749008,262.258209 230.411453,261.415009 231.328232,260.260315 
	C231.582550,259.948883 232.007904,260.108063 231.997879,260.261414 
	C231.987854,260.414734 231.957596,260.720581 231.957596,260.720581 
z"/>
<path fill="#EBF1FB" opacity="1.000000" stroke="none" 
	d="
M132.635040,149.167023 
	C131.918884,150.145813 130.875412,151.093643 129.487457,152.023895 
	C130.197891,151.049576 131.252792,150.092819 132.635040,149.167023 
z"/>
<path fill="#EBF2FF" opacity="1.000000" stroke="none" 
	d="
M254.085678,279.792664 
	C255.336929,279.248535 256.502960,279.164246 258.249573,279.205750 
	C257.220245,279.638519 255.610352,279.945496 254.085678,279.792664 
z"/>
<path fill="#EBF1FB" opacity="1.000000" stroke="none" 
	d="
M228.793198,262.961212 
	C229.086548,263.101410 229.068604,263.492218 229.043259,263.686157 
	C228.267853,263.924805 227.517776,263.969543 226.392059,264.030823 
	C226.844208,263.638580 227.672028,263.229797 228.793198,262.961212 
z"/>
<path fill="#EBF2FF" opacity="1.000000" stroke="none" 
	d="
M230.218216,280.942444 
	C230.993866,280.620178 232.106247,280.344818 233.207855,280.461823 
	C232.316360,280.899231 231.435654,280.944275 230.218216,280.942444 
z"/>
<path fill="#EBF2FF" opacity="1.000000" stroke="none" 
	d="
M216.673615,280.601868 
	C217.812592,280.246979 219.195724,280.227112 220.842224,280.551819 
	C219.709625,280.909912 218.313705,280.923401 216.673615,280.601868 
z"/>
<path fill="#EBF1FB" opacity="1.000000" stroke="none" 
	d="
M244.578506,183.774445 
	C244.630600,184.028183 244.226151,184.004791 244.029007,183.951172 
	C243.850418,183.524567 243.868973,183.151566 243.928772,182.502197 
	C244.155472,182.657455 244.340942,183.089081 244.578506,183.774445 
z"/>
<path fill="#EBF1FB" opacity="1.000000" stroke="none" 
	d="
M243.666626,180.687592 
	C243.394165,180.524185 243.163101,180.102325 242.952438,179.425629 
	C243.217911,179.590256 243.462982,180.009705 243.666626,180.687592 
z"/>
<path fill="#EBF1FB" opacity="1.000000" stroke="none" 
	d="
M241.915771,176.673309 
	C241.605804,176.545135 241.293655,176.144470 240.998154,175.474884 
	C241.314392,175.604263 241.613998,176.002533 241.915771,176.673309 
z"/>
<path fill="#A0B1F6" opacity="1.000000" stroke="none" 
	d="
M415.927155,277.167908 
	C415.734711,277.595856 415.223877,277.898743 414.412781,278.140686 
	C414.611237,277.734100 415.110016,277.388489 415.927155,277.167908 
z"/>
<path fill="#EBF2FF" opacity="1.000000" stroke="none" 
	d="
M214.184418,280.912781 
	C214.189026,280.553345 214.441620,280.447571 214.922333,280.677551 
	C214.857056,280.983673 214.617691,281.034698 214.184418,280.912781 
z"/>
<path fill="#EBF1FB" opacity="1.000000" stroke="none" 
	d="
M242.681946,177.740234 
	C242.332382,177.907349 242.141083,177.749039 242.029663,177.285019 
	C242.346741,177.091248 242.590271,177.236420 242.681946,177.740234 
z"/>
<path fill="#EBF1FB" opacity="1.000000" stroke="none" 
	d="
M240.802231,174.728577 
	C240.504013,174.901520 240.268539,174.725616 240.063446,174.213379 
	C240.333862,174.053909 240.590912,174.221466 240.802231,174.728577 
z"/>
<path fill="#EBF1FB" opacity="1.000000" stroke="none" 
	d="
M127.769539,153.178436 
	C127.965050,153.445709 127.819847,153.688309 127.345940,153.921967 
	C127.123512,153.649963 127.260704,153.396881 127.769539,153.178436 
z"/>
<path fill="#EBF1FB" opacity="1.000000" stroke="none" 
	d="
M133.772812,148.367981 
	C133.932373,148.631943 133.822006,148.800323 133.467133,148.920441 
	C133.226776,148.647842 133.320175,148.447906 133.772812,148.367981 
z"/>
<path fill="#EBF1FB" opacity="1.000000" stroke="none" 
	d="
M128.743317,152.155182 
	C128.937149,152.437851 128.787430,152.674240 128.324219,152.909363 
	C128.065643,152.621338 128.195312,152.354935 128.743317,152.155182 
z"/>
<path fill="#000001" opacity="1.000000" stroke="none" 
	d="
M178.727936,143.876373 
	C182.584442,144.487152 186.209274,145.143112 189.818100,145.877670 
	C199.695816,147.888168 199.988678,148.143478 200.033447,158.251251 
	C200.108490,175.197617 200.048981,192.144547 200.115143,209.557678 
	C200.122589,210.454056 200.061005,210.884003 199.587677,211.815033 
	C199.450577,214.538925 199.725204,216.761719 199.999847,218.984528 
	C200.012878,219.161179 200.025894,219.337845 199.706207,219.999634 
	C198.165787,227.168320 196.898117,233.811661 188.971848,235.987289 
	C188.226288,235.996414 187.480728,236.005539 186.112488,235.757202 
	C182.670227,234.663239 179.850677,233.826721 177.031113,232.990204 
	C177.031113,232.990204 177.008301,232.990738 176.892822,232.662140 
	C173.966507,230.186935 171.155655,228.040298 168.087708,225.697327 
	C166.960098,226.921448 166.006317,227.956894 165.052521,228.992325 
	C165.052521,228.992325 164.978943,229.010559 164.767151,229.118317 
	C164.274963,229.405243 164.120270,229.660568 164.091232,229.992035 
	C164.091232,229.992035 164.002167,229.977219 163.738586,230.043579 
	C163.338120,230.398788 163.201263,230.687637 163.064392,230.976471 
	C163.064392,230.976471 162.970123,230.995163 162.748230,231.099945 
	C162.239777,231.386795 162.083603,231.647125 162.057816,231.985718 
	C162.057816,231.985718 161.994202,231.977325 161.731140,232.039688 
	C161.304825,232.391098 161.141571,232.680145 160.978333,232.969193 
	C160.978333,232.969193 160.996094,232.998154 160.659454,233.104248 
	C159.143188,234.478241 157.963547,235.746140 155.673859,238.207123 
	C157.595856,239.539276 159.288467,240.712433 160.981079,241.885590 
	C160.981079,241.885590 160.994385,242.033066 161.100296,242.236969 
	C161.206207,242.440872 161.497833,242.738831 161.497833,242.738831 
	C161.497833,242.738831 161.909393,242.672409 161.909393,242.672409 
	C161.909393,242.672409 162.107178,242.987457 162.420197,243.276093 
	C166.892075,247.176636 171.534180,249.820831 177.050537,250.714310 
	C177.810379,251.087219 178.570206,251.460129 179.910370,251.837875 
	C180.675385,251.568542 180.860046,251.294388 181.044708,251.020233 
	C181.774216,251.012924 182.503754,251.005615 183.763428,251.328186 
	C185.542450,251.457016 186.791336,251.255966 188.040222,251.054932 
	C188.772064,251.036835 189.503891,251.018738 190.692993,251.343277 
	C192.013611,251.402222 192.876953,251.118530 193.740311,250.834839 
	C193.740311,250.834839 194.130966,250.964661 194.631439,250.979645 
	C199.284912,249.194931 203.965042,248.096375 207.482651,245.451630 
	C215.127182,239.704041 217.815567,231.126480 217.916092,221.911316 
	C218.117264,203.468384 217.951233,185.021545 217.960617,166.576309 
	C217.961472,164.897263 218.134140,163.218292 218.227036,161.539291 
	C218.748383,161.349060 219.269745,161.158829 219.791107,160.968613 
	C223.385147,165.468552 227.306564,169.748672 230.506088,174.513535 
	C237.481750,184.901993 240.380234,196.641876 240.869019,209.043213 
	C240.869019,209.043213 240.971298,209.455597 240.689621,209.758377 
	C240.588898,210.413544 240.769867,210.765945 240.950836,211.118332 
	C240.950836,211.118332 241.018478,211.568420 241.024139,212.036072 
	C241.081436,212.671753 241.133072,212.839783 241.184723,213.007812 
	C241.133972,213.174728 241.083237,213.341629 240.670883,213.996765 
	C239.159103,220.239655 238.643829,226.221436 236.688385,231.688049 
	C234.536667,237.703308 231.060608,243.244843 228.161499,248.992767 
	C228.161514,248.992767 227.990845,249.022949 227.991699,249.110138 
	C224.579926,252.544647 221.202377,255.928696 217.747620,259.231964 
	C209.569931,267.051056 199.619308,271.793762 188.733932,273.843994 
	C163.650146,278.568604 142.187836,271.359253 125.442383,251.984467 
	C112.508766,237.020050 107.744415,219.504837 110.651199,199.735733 
	C113.123535,182.921326 121.345520,169.662994 133.963898,158.368774 
	C134.047531,158.040955 134.006439,158.007660 134.369110,157.966705 
	C142.915649,151.676559 152.332001,148.034225 162.042267,145.013504 
	C162.489502,144.992554 162.936722,144.971603 164.139893,144.860413 
	C169.263977,144.457291 173.632126,144.144394 178.000259,143.831497 
	C178.163162,143.873474 178.326065,143.915436 178.727936,143.876373 
z"/>
<path fill="#010101" opacity="1.000000" stroke="none" 
	d="
M232.007904,260.108063 
	C232.007904,260.108063 231.582550,259.948883 231.356873,259.927856 
	C231.131195,259.906830 231.049164,259.886993 231.028259,259.595123 
	C231.374817,258.550476 231.742264,257.797729 232.109711,257.044952 
	C232.708252,256.565887 233.306808,256.086823 234.293015,255.184174 
	C238.332565,248.208862 242.704117,241.942810 245.448059,235.030655 
	C248.636841,226.997955 246.343719,227.505829 256.110199,228.052170 
	C261.054688,228.328781 261.590546,227.121368 259.854065,222.993149 
	C257.648865,222.993149 255.495483,222.926361 253.347824,223.008606 
	C250.037582,223.135391 248.863724,222.446213 249.340424,218.416183 
	C250.018005,212.688202 249.210251,206.784515 249.037109,200.955902 
	C249.016830,200.518829 248.996552,200.081757 248.929947,198.915436 
	C248.891052,195.403473 245.691833,192.574417 249.004257,189.839478 
	C250.072113,189.887451 251.139954,189.935425 253.066238,189.976715 
	C277.856354,189.979095 301.788055,190.013306 325.719727,189.990326 
	C350.811371,189.966248 375.902985,189.887283 400.994598,189.832306 
	C414.318176,189.888138 427.641754,189.943970 441.497314,190.488602 
	C442.071503,201.316803 442.113678,211.656189 442.155823,221.995590 
	C442.116150,222.732071 442.076477,223.468552 442.072510,225.036713 
	C442.101044,235.530914 442.149902,245.194122 442.034149,254.855362 
	C442.013763,256.556366 441.304688,258.249115 440.913666,259.945679 
	C440.913666,259.945679 440.988983,259.972443 440.510010,259.975769 
	C414.921051,259.979034 389.811127,259.964294 364.701172,259.982178 
	C320.470093,260.013641 276.238983,260.065033 232.007904,260.108063 
M262.212372,232.989319 
	C265.630463,241.199509 272.021454,244.432114 280.612518,243.969818 
	C286.215088,243.668350 291.983124,239.289383 292.917847,234.640518 
	C293.975983,229.378067 291.296875,224.657425 285.324707,221.816315 
	C281.669952,220.077637 277.723969,218.922943 274.164032,217.026810 
	C272.714996,216.254990 270.851654,213.967529 271.113129,212.805191 
	C271.524597,210.975647 273.256622,208.760941 274.986176,208.034393 
	C280.826630,205.581024 283.562622,207.330933 286.756805,214.699631 
	C288.712860,214.699631 290.646454,214.699631 293.354492,214.699631 
	C292.775299,212.402634 292.621674,210.436203 291.807159,208.798477 
	C288.326111,201.799286 279.295349,199.208130 270.760406,202.811539 
	C266.540802,204.593048 264.270691,207.732346 263.889740,212.552567 
	C263.497314,217.518066 265.837708,220.327240 269.917603,222.206833 
	C274.198364,224.179001 278.665344,225.793777 282.776886,228.061646 
	C284.265259,228.882645 285.874329,231.206451 285.766327,232.726410 
	C285.653381,234.315842 283.843140,236.396057 282.247864,237.156738 
	C276.982269,239.667603 272.587341,237.692688 269.613403,232.406082 
	C268.987732,231.293808 267.244904,230.231110 265.997437,230.208313 
	C264.718719,230.184952 263.416168,231.465286 262.212372,232.989319 
M417.674164,230.901169 
	C422.186646,235.903381 423.689209,244.953751 434.391296,242.542664 
	C428.803040,234.970901 423.402405,227.653397 417.900604,220.198822 
	C423.022308,214.383194 428.068970,208.652771 433.616425,202.353683 
	C428.540741,201.820343 424.924316,201.428894 421.858551,205.827164 
	C418.477936,210.677048 413.973267,214.743439 409.121460,220.069748 
	C409.121460,213.408020 409.121460,207.760849 409.121460,201.937546 
	C406.496002,202.060776 404.579468,202.150726 402.520294,202.247360 
	C402.520294,216.011169 402.520294,229.388748 402.520294,242.595337 
	C404.873230,242.595337 406.962891,242.595337 409.249084,242.595337 
	C409.475861,236.615173 406.609833,230.154083 413.000946,225.439224 
	C414.470459,227.175552 415.821472,228.771805 417.674164,230.901169 
M360.769165,236.749863 
	C360.273773,236.088379 359.584106,235.497940 359.312378,234.754700 
	C355.746552,225.002106 352.335205,215.191269 348.613586,205.499298 
	C348.064758,204.070023 346.242218,202.509583 344.778748,202.234451 
	C343.441376,201.983002 340.850708,203.025711 340.423706,204.124359 
	C335.468140,216.874985 330.818512,229.744522 326.045135,242.698212 
	C332.711761,242.927658 332.559814,242.862259 335.022034,237.142792 
	C335.732483,235.492416 337.455444,233.315033 338.945679,233.116516 
	C350.246094,231.611053 350.973053,232.142685 355.705200,242.321732 
	C355.768127,242.457092 355.955536,242.534607 356.253845,242.775726 
	C358.214020,242.775726 360.343079,242.775726 362.667206,242.775726 
	C362.052032,240.891144 361.499634,239.198792 360.769165,236.749863 
M385.247253,207.976089 
	C386.516174,209.809052 387.529266,211.918243 389.126160,213.397095 
	C390.716583,214.869980 392.892792,215.710312 394.812164,216.827988 
	C395.312866,215.283218 396.541626,213.549744 396.197937,212.223801 
	C393.669678,202.469391 383.082153,198.178635 373.955627,202.877075 
	C368.051392,205.916626 366.575348,211.334290 364.862000,217.208649 
	C360.888824,230.831192 369.509369,243.834396 383.145264,243.815063 
	C390.596588,243.804504 397.060760,236.842957 396.425720,228.520889 
	C394.154144,230.729050 390.436554,226.785172 388.804504,231.978256 
	C388.036316,234.422638 385.108795,237.336319 382.724609,237.800079 
	C380.369843,238.258102 376.634033,236.604065 374.956635,234.637558 
	C369.541046,228.288574 371.140900,220.595459 372.981323,213.497879 
	C374.430847,207.907684 378.972748,206.194107 385.247253,207.976089 
M311.500122,202.039017 
	C306.223572,202.039017 300.947021,202.039017 295.442657,202.039017 
	C295.442657,204.280319 295.442657,205.976242 295.442657,207.744629 
	C298.371399,207.744629 301.041199,207.997055 303.643646,207.685944 
	C307.636719,207.208618 308.820038,208.685928 308.714508,212.659058 
	C308.451324,222.568985 308.627808,232.490585 308.627808,242.632706 
	C310.557343,242.632706 312.588837,242.632706 315.023193,242.632706 
	C315.023193,230.945496 315.023193,219.530640 315.023193,207.654480 
	C319.502319,207.654480 323.580261,207.654480 327.713104,207.654480 
	C327.606842,205.601120 327.525177,204.022186 327.422546,202.038971 
	C322.410431,202.038971 317.453857,202.038971 311.500122,202.039017 
z"/>
<path fill="#EBF1FB" opacity="1.000000" stroke="none" 
	d="
M241.169434,208.797104 
	C240.380234,196.641876 237.481750,184.901993 230.506088,174.513535 
	C227.306564,169.748672 223.385147,165.468552 219.791107,160.968613 
	C219.269745,161.158829 218.748383,161.349060 218.227036,161.539291 
	C218.134140,163.218292 217.961472,164.897263 217.960617,166.576309 
	C217.951233,185.021545 218.117264,203.468384 217.916092,221.911316 
	C217.815567,231.126480 215.127182,239.704041 207.482651,245.451630 
	C203.965042,248.096375 199.284912,249.194931 194.827164,250.915894 
	C195.271942,250.224777 195.986404,249.562332 196.776886,249.008347 
	C201.009064,246.042358 206.087723,243.808853 209.329681,240.005859 
	C215.758774,232.464157 217.167068,222.923889 216.944382,213.230499 
	C216.773087,205.774124 216.078110,198.322128 216.113098,190.870529 
	C216.159012,181.085495 216.616669,171.298538 217.158981,161.526917 
	C217.203552,160.723877 219.778244,159.137466 220.282181,159.434357 
	C223.437912,161.293625 227.774673,162.947205 229.062943,165.848785 
	C233.382004,175.576691 239.996597,184.485870 240.957962,195.532333 
	C241.334061,199.854004 241.311066,204.210403 241.169434,208.797104 
z"/>
<path fill="#EBF1FB" opacity="1.000000" stroke="none" 
	d="
M248.751083,201.228088 
	C249.210251,206.784515 250.018005,212.688202 249.340424,218.416183 
	C248.863724,222.446213 250.037582,223.135391 253.347824,223.008606 
	C255.495483,222.926361 257.648865,222.993149 259.854065,222.993149 
	C261.590546,227.121368 261.054688,228.328781 256.110199,228.052170 
	C246.343719,227.505829 248.636841,226.997955 245.448059,235.030655 
	C242.704117,241.942810 238.332565,248.208862 234.369080,254.900177 
	C233.210251,254.324265 232.363022,253.608749 231.467133,252.852158 
	C236.514709,248.964600 239.941940,244.875870 240.727386,238.173615 
	C241.235428,233.838348 245.148941,229.983231 246.987564,225.678528 
	C247.624115,224.188171 246.606873,221.991425 246.235672,219.334518 
	C250.544205,214.598480 247.054337,207.672363 248.751083,201.228088 
z"/>
<path fill="#EBF1FB" opacity="1.000000" stroke="none" 
	d="
M228.507294,248.971176 
	C231.060608,243.244843 234.536667,237.703308 236.688385,231.688049 
	C238.643829,226.221436 239.159103,220.239655 240.646393,214.257294 
	C243.290115,224.688797 238.154617,233.804535 234.615601,243.155594 
	C233.735580,245.480835 230.828461,247.038895 228.507294,248.971176 
z"/>
<path fill="#EBF1FB" opacity="1.000000" stroke="none" 
	d="
M189.140884,236.293777 
	C196.898117,233.811661 198.165787,227.168320 199.689972,220.264847 
	C199.339966,224.489395 199.398178,229.226746 197.760590,233.278748 
	C196.605621,236.136581 193.746658,239.677078 189.140884,236.293777 
z"/>
<path fill="#EBF1FB" opacity="1.000000" stroke="none" 
	d="
M177.001419,250.391052 
	C171.534180,249.820831 166.892075,247.176636 162.606186,243.276520 
	C164.742630,243.707230 166.991028,244.479050 169.273972,245.129623 
	C171.413712,245.739380 173.590012,246.220779 176.402786,246.921173 
	C176.426041,247.054352 176.689178,248.561081 177.001419,250.391052 
z"/>
<path fill="#EBF1FB" opacity="1.000000" stroke="none" 
	d="
M165.415878,228.997421 
	C166.006317,227.956894 166.960098,226.921448 168.087708,225.697327 
	C171.155655,228.040298 173.966507,230.186935 176.892792,232.650726 
	C174.800568,231.907837 172.647049,230.704971 170.365479,229.839859 
	C168.936371,229.297958 167.314575,229.264236 165.415878,228.997421 
z"/>
<path fill="#EBF1FB" opacity="1.000000" stroke="none" 
	d="
M160.998413,241.443527 
	C159.288467,240.712433 157.595856,239.539276 155.673859,238.207123 
	C157.963547,235.746140 159.143188,234.478241 160.644608,233.095673 
	C160.982834,235.654480 160.999298,238.327972 160.998413,241.443527 
z"/>
<path fill="#EBF1FB" opacity="1.000000" stroke="none" 
	d="
M248.995209,189.499069 
	C245.691833,192.574417 248.891052,195.403473 248.841248,198.599426 
	C245.035934,195.802307 245.606461,191.861343 246.958557,187.399994 
	C247.668152,187.721451 248.327148,188.440063 248.995209,189.499069 
z"/>
<path fill="#EBF1FB" opacity="1.000000" stroke="none" 
	d="
M177.047913,233.329315 
	C179.850677,233.826721 182.670227,234.663239 185.739914,235.771469 
	C183.188309,237.553513 179.464630,236.562759 177.047913,233.329315 
z"/>
<path fill="#F7FCFE" opacity="1.000000" stroke="none" 
	d="
M231.780304,256.906067 
	C231.742264,257.797729 231.374817,258.550476 231.052109,259.628906 
	C229.825516,259.410004 228.554169,258.865417 227.282837,258.320862 
	C227.295334,257.802979 227.307831,257.285065 227.320312,256.767151 
	C228.697189,256.767151 230.074051,256.767151 231.780304,256.906067 
z"/>
<path fill="#EBF1FB" opacity="1.000000" stroke="none" 
	d="
M200.163727,218.639221 
	C199.725204,216.761719 199.450577,214.538925 199.528809,212.137451 
	C200.030319,214.070511 200.178970,216.182205 200.163727,218.639221 
z"/>
<path fill="#EBF1FB" opacity="1.000000" stroke="none" 
	d="
M187.824799,250.789124 
	C186.791336,251.255966 185.542450,251.457016 184.127686,251.348770 
	C185.177643,250.867432 186.393494,250.695374 187.824799,250.789124 
z"/>
<path fill="#EBF1FB" opacity="1.000000" stroke="none" 
	d="
M193.394989,250.625031 
	C192.876953,251.118530 192.013611,251.402222 191.054459,251.402908 
	C191.655655,250.885025 192.352676,250.650146 193.394989,250.625031 
z"/>
<path fill="#EBF1FB" opacity="1.000000" stroke="none" 
	d="
M239.468384,183.450958 
	C239.522659,183.418808 239.414093,183.483093 239.468384,183.450958 
z"/>
<path fill="#EBF1FB" opacity="1.000000" stroke="none" 
	d="
M180.819214,251.062256 
	C180.860046,251.294388 180.675385,251.568542 180.238205,251.805573 
	C180.100510,251.466629 180.303192,251.245224 180.819214,251.062256 
z"/>
<path fill="#EBF1FB" opacity="1.000000" stroke="none" 
	d="
M240.968201,210.808685 
	C240.769867,210.765945 240.588898,210.413544 240.678391,209.970520 
	C240.961090,210.086273 240.973328,210.292664 240.968201,210.808685 
z"/>
<path fill="#EBF1FB" opacity="1.000000" stroke="none" 
	d="
M241.329666,212.909744 
	C241.133072,212.839783 241.081436,212.671753 241.101791,212.249969 
	C241.274063,212.268051 241.374344,212.539856 241.329666,212.909744 
z"/>
<path fill="#EBF1FB" opacity="1.000000" stroke="none" 
	d="
M164.312042,229.923203 
	C164.120270,229.660568 164.274963,229.405243 164.774429,229.155502 
	C164.968338,229.418289 164.814789,229.674774 164.312042,229.923203 
z"/>
<path fill="#EBF1FB" opacity="1.000000" stroke="none" 
	d="
M163.278381,230.895645 
	C163.201263,230.687637 163.338120,230.398788 163.728516,230.087585 
	C163.922714,230.382980 163.759491,230.632843 163.278381,230.895645 
z"/>
<path fill="#EBF1FB" opacity="1.000000" stroke="none" 
	d="
M162.277893,231.915741 
	C162.083603,231.647125 162.239777,231.386795 162.753448,231.147705 
	C162.942612,231.420959 162.781754,231.672653 162.277893,231.915741 
z"/>
<path fill="#EBF1FB" opacity="1.000000" stroke="none" 
	d="
M161.207016,232.890808 
	C161.141571,232.680145 161.304825,232.391098 161.724777,232.071136 
	C161.906662,232.373367 161.724747,232.630753 161.207016,232.890808 
z"/>
<path fill="#EBF1FB" opacity="1.000000" stroke="none" 
	d="
M161.853394,242.496857 
	C161.909393,242.672409 161.497833,242.738831 161.497833,242.738831 
	C161.497833,242.738831 161.206207,242.440872 161.174316,242.234711 
	C161.408020,242.020477 161.626343,242.118073 161.853394,242.496857 
z"/>
<path fill="#C9D6FC" opacity="1.000000" stroke="none" 
	d="
M231.997879,260.261414 
	C276.238983,260.065033 320.470093,260.013641 364.701172,259.982178 
	C389.811127,259.964294 414.921051,259.979034 440.496643,259.938080 
	C439.590424,260.253082 438.218658,260.919830 436.846588,260.920471 
	C368.861542,260.951721 300.876434,260.925873 232.424469,260.813446 
	C231.957596,260.720581 231.987854,260.414734 231.997879,260.261414 
z"/>
<path fill="#0000FF" opacity="1.000000" stroke="none" 
	d="
M400.760376,189.471893 
	C375.902985,189.887283 350.811371,189.966248 325.719727,189.990326 
	C301.788055,190.013306 277.856354,189.979095 253.460999,189.900330 
	C253.864670,189.552261 254.732025,189.030380 255.599365,189.030365 
	C303.908295,189.029800 352.217224,189.072815 400.760376,189.471893 
z"/>
<path fill="#C9D6FC" opacity="1.000000" stroke="none" 
	d="
M441.325806,259.883301 
	C441.304688,258.249115 442.013763,256.556366 442.034149,254.855362 
	C442.149902,245.194122 442.101044,235.530914 442.167328,225.394623 
	C442.512665,228.149017 442.987305,231.373718 443.046326,234.605988 
	C443.173218,241.556992 443.161652,248.513397 443.025391,255.464020 
	C442.996765,256.924164 442.187500,258.369019 441.325806,259.883301 
z"/>
<path fill="#C9D6FC" opacity="1.000000" stroke="none" 
	d="
M442.420776,221.674332 
	C442.113678,211.656189 442.071503,201.316803 441.958069,190.517517 
	C442.276398,190.735825 443.007446,191.415741 443.004089,192.092010 
	C442.955872,201.845993 442.808960,211.599472 442.420776,221.674332 
z"/>
<path fill="#EBF1FB" opacity="1.000000" stroke="none" 
	d="
M161.765961,144.733246 
	C152.332001,148.034225 142.915649,151.676559 134.384888,157.987427 
	C134.169739,157.249252 134.033295,155.964890 134.473022,155.721466 
	C142.433792,151.314957 149.548630,145.082703 159.088562,144.039719 
	C159.864594,143.954880 160.688187,144.304993 161.765961,144.733246 
z"/>
<path fill="#EBF1FB" opacity="1.000000" stroke="none" 
	d="
M177.704895,143.579056 
	C173.632126,144.144394 169.263977,144.457291 164.451355,144.734848 
	C168.010452,139.712509 172.888428,143.261612 177.704895,143.579056 
z"/>
<path fill="#E3EAFA" opacity="1.000000" stroke="none" 
	d="
M262.168213,232.582169 
	C263.416168,231.465286 264.718719,230.184952 265.997437,230.208313 
	C267.244904,230.231110 268.987732,231.293808 269.613403,232.406082 
	C272.587341,237.692688 276.982269,239.667603 282.247864,237.156738 
	C283.843140,236.396057 285.653381,234.315842 285.766327,232.726410 
	C285.874329,231.206451 284.265259,228.882645 282.776886,228.061646 
	C278.665344,225.793777 274.198364,224.179001 269.917603,222.206833 
	C265.837708,220.327240 263.497314,217.518066 263.889740,212.552567 
	C264.270691,207.732346 266.540802,204.593048 270.760406,202.811539 
	C279.295349,199.208130 288.326111,201.799286 291.807159,208.798477 
	C292.621674,210.436203 292.775299,212.402634 293.354492,214.699631 
	C290.646454,214.699631 288.712860,214.699631 286.756805,214.699631 
	C283.562622,207.330933 280.826630,205.581024 274.986176,208.034393 
	C273.256622,208.760941 271.524597,210.975647 271.113129,212.805191 
	C270.851654,213.967529 272.714996,216.254990 274.164032,217.026810 
	C277.723969,218.922943 281.669952,220.077637 285.324707,221.816315 
	C291.296875,224.657425 293.975983,229.378067 292.917847,234.640518 
	C291.983124,239.289383 286.215088,243.668350 280.612518,243.969818 
	C272.021454,244.432114 265.630463,241.199509 262.168213,232.582169 
z"/>
<path fill="#DFE5F7" opacity="1.000000" stroke="none" 
	d="
M417.423309,230.634613 
	C415.821472,228.771805 414.470459,227.175552 413.000946,225.439224 
	C406.609833,230.154083 409.475861,236.615173 409.249084,242.595337 
	C406.962891,242.595337 404.873230,242.595337 402.520294,242.595337 
	C402.520294,229.388748 402.520294,216.011169 402.520294,202.247360 
	C404.579468,202.150726 406.496002,202.060776 409.121460,201.937546 
	C409.121460,207.760849 409.121460,213.408020 409.121460,220.069748 
	C413.973267,214.743439 418.477936,210.677048 421.858551,205.827164 
	C424.924316,201.428894 428.540741,201.820343 433.616425,202.353683 
	C428.068970,208.652771 423.022308,214.383194 417.900604,220.198822 
	C423.402405,227.653397 428.803040,234.970901 434.391296,242.542664 
	C423.689209,244.953751 422.186646,235.903381 417.423309,230.634613 
z"/>
<path fill="#E3EAF9" opacity="1.000000" stroke="none" 
	d="
M360.858215,237.128143 
	C361.499634,239.198792 362.052032,240.891144 362.667206,242.775726 
	C360.343079,242.775726 358.214020,242.775726 356.253845,242.775726 
	C355.955536,242.534607 355.768127,242.457092 355.705200,242.321732 
	C350.973053,232.142685 350.246094,231.611053 338.945679,233.116516 
	C337.455444,233.315033 335.732483,235.492416 335.022034,237.142792 
	C332.559814,242.862259 332.711761,242.927658 326.045135,242.698212 
	C330.818512,229.744522 335.468140,216.874985 340.423706,204.124359 
	C340.850708,203.025711 343.441376,201.983002 344.778748,202.234451 
	C346.242218,202.509583 348.064758,204.070023 348.613586,205.499298 
	C352.335205,215.191269 355.746552,225.002106 359.312378,234.754700 
	C359.584106,235.497940 360.273773,236.088379 360.858215,237.128143 
M341.804535,218.395126 
	C340.830109,221.124252 339.855713,223.853378 338.873718,226.603729 
	C342.596680,226.603729 345.996033,226.603729 349.768616,226.603729 
	C347.912354,221.590530 346.314301,217.274643 344.336060,211.931961 
	C343.222748,214.625504 342.603210,216.124496 341.804535,218.395126 
z"/>
<path fill="#E3EAFA" opacity="1.000000" stroke="none" 
	d="
M384.851074,207.895294 
	C378.972748,206.194107 374.430847,207.907684 372.981323,213.497879 
	C371.140900,220.595459 369.541046,228.288574 374.956635,234.637558 
	C376.634033,236.604065 380.369843,238.258102 382.724609,237.800079 
	C385.108795,237.336319 388.036316,234.422638 388.804504,231.978256 
	C390.436554,226.785172 394.154144,230.729050 396.425720,228.520889 
	C397.060760,236.842957 390.596588,243.804504 383.145264,243.815063 
	C369.509369,243.834396 360.888824,230.831192 364.862000,217.208649 
	C366.575348,211.334290 368.051392,205.916626 373.955627,202.877075 
	C383.082153,198.178635 393.669678,202.469391 396.197937,212.223801 
	C396.541626,213.549744 395.312866,215.283218 394.812164,216.827988 
	C392.892792,215.710312 390.716583,214.869980 389.126160,213.397095 
	C387.529266,211.918243 386.516174,209.809052 384.851074,207.895294 
z"/>
<path fill="#E5ECFC" opacity="1.000000" stroke="none" 
	d="
M311.998718,202.039001 
	C317.453857,202.038971 322.410431,202.038971 327.422546,202.038971 
	C327.525177,204.022186 327.606842,205.601120 327.713104,207.654480 
	C323.580261,207.654480 319.502319,207.654480 315.023193,207.654480 
	C315.023193,219.530640 315.023193,230.945496 315.023193,242.632706 
	C312.588837,242.632706 310.557343,242.632706 308.627808,242.632706 
	C308.627808,232.490585 308.451324,222.568985 308.714508,212.659058 
	C308.820038,208.685928 307.636719,207.208618 303.643646,207.685944 
	C301.041199,207.997055 298.371399,207.744629 295.442657,207.744629 
	C295.442657,205.976242 295.442657,204.280319 295.442657,202.039017 
	C300.947021,202.039017 306.223572,202.039017 311.998718,202.039001 
z"/>
<path fill="#010101" opacity="1.000000" stroke="none" 
	d="
M341.894104,218.009308 
	C342.603210,216.124496 343.222748,214.625504 344.336060,211.931961 
	C346.314301,217.274643 347.912354,221.590530 349.768616,226.603729 
	C345.996033,226.603729 342.596680,226.603729 338.873718,226.603729 
	C339.855713,223.853378 340.830109,221.124252 341.894104,218.009308 
z"/>
</svg>