<?xml version="1.0" encoding="iso-8859-1"?>
<!-- Uploaded to: SVG Repo, www.svgrepo.com, Generator: SVG Repo Mixer Tools -->
<svg version="1.1" id="Layer_1" xmlns="http://www.w3.org/2000/svg" xmlns:xlink="http://www.w3.org/1999/xlink" 
	 viewBox="0 0 512 512" xml:space="preserve">
<path d="M503.467,0h-51.2c-4.693,0-8.533,3.84-8.533,8.533v51.2c0,4.693,3.84,8.533,8.533,8.533h16.043
	c-15.019,136.107-31.061,243.371-75.776,275.712V332.8c0-4.693-3.84-8.533-8.533-8.533h-51.2c-4.693,0-8.533,3.84-8.533,8.533v9.216
	c-24.235-20.565-47.616-60.416-70.315-99.243c-22.443-38.485-43.776-74.837-66.219-93.269V128c0-4.693-3.84-8.533-8.533-8.533H128
	c-4.693,0-8.533,3.84-8.533,8.533v20.309c-45.824,25.259-73.899,114.688-93.013,295.424H8.533c-4.693,0-8.533,3.84-8.533,8.533v51.2
	C0,508.16,3.84,512,8.533,512h51.2c4.693,0,8.533-3.84,8.533-8.533v-51.2c0-4.693-3.84-8.533-8.533-8.533H43.605
	c16.725-157.099,41.045-245.589,75.861-274.773v10.24c0,4.693,3.84,8.533,8.533,8.533h51.2c4.693,0,8.533-3.84,8.533-8.533v-5.973
	c16.64,18.603,33.707,47.701,51.541,78.165c26.539,45.312,53.931,92.075,84.992,111.787V384c0,4.693,3.84,8.533,8.533,8.533H384
	c4.693,0,8.533-3.84,8.533-8.533v-20.053c58.539-29.184,75.947-141.227,93.013-295.68h17.92c4.693,0,8.533-3.84,8.533-8.533v-51.2
	C512,3.84,508.16,0,503.467,0z M51.2,460.8v34.133H17.067V460.8H51.2z M170.667,170.667h-34.133v-34.133h34.133V170.667z
	 M375.467,375.467h-34.133v-34.133h34.133V375.467z M494.933,51.2H460.8V17.067h34.133V51.2z"/>
<rect x="42.667" y="460.8" style="fill:#215EFF;" width="8.533" height="34.133"/>
<rect x="17.067" y="460.8" style="fill:#0F7BE4;" width="25.6" height="34.133"/>
<rect x="162.133" y="136.533" style="fill:#F6981E;" width="8.533" height="34.133"/>
<g>
	<rect x="136.533" y="136.533" style="fill:#FDB50D;" width="25.6" height="34.133"/>
	<rect x="366.933" y="341.333" style="fill:#FDB50D;" width="8.533" height="34.133"/>
	<rect x="341.333" y="341.333" style="fill:#FDB50D;" width="25.6" height="34.133"/>
</g>
<rect x="486.4" y="17.067" style="fill:#215EFF;" width="8.533" height="34.133"/>
<rect x="460.8" y="17.067" style="fill:#0F7BE4;" width="25.6" height="34.133"/>
<rect x="366.933" y="341.333" style="fill:#F6981E;" width="8.533" height="34.133"/>
</svg>